<?xml version="1.0" encoding="UTF-8"?>
<svg version="1.0" xmlns="http://www.w3.org/2000/svg"
 width="100%" height="auto" viewBox="0 0 1917 477"
 preserveAspectRatio="xMidYMid meet">


<g transform="translate(0.000000,477.000000) scale(0.100000,-0.100000)" stroke="none">
<g fill="#3D8C6A">
<path d="M1880 3790 c0 -67 4 -110 10 -110 6 0 10 43 10 110 0 67 -4 110 -10
110 -6 0 -10 -43 -10 -110z"/>
<path d="M1327 3763 c-8 -12 150 -169 160 -160 4 4 -29 44 -74 89 -44 44 -83
76 -86 71z"/>
<path d="M2365 3690 c-44 -44 -76 -83 -72 -87 4 -4 44 29 89 74 44 44 76 83
71 86 -5 3 -45 -30 -88 -73z"/>
<path d="M1820 3559 c-205 -21 -373 -179 -425 -400 -31 -131 -14 -371 36 -537
21 -65 84 -203 114 -245 8 -12 15 -29 15 -39 0 -9 8 -19 18 -22 25 -8 87 -92
119 -162 21 -46 28 -79 31 -146 4 -84 3 -88 -16 -88 -46 0 -58 -86 -17 -124
18 -17 25 -34 25 -59 0 -26 6 -39 19 -47 11 -5 22 -23 26 -40 l7 -30 118 0
118 0 7 30 c4 17 15 35 26 40 13 8 19 21 19 47 0 25 7 42 25 59 41 38 29 124
-17 124 -19 0 -20 4 -16 88 3 67 10 100 31 146 32 70 94 154 119 162 10 3 18
12 18 20 0 9 17 46 39 82 91 158 130 306 138 517 6 171 -7 246 -58 350 -97
198 -286 297 -519 274z m195 -43 c159 -42 277 -164 332 -341 26 -87 24 -316
-5 -441 -31 -139 -112 -332 -136 -327 -5 1 -24 37 -41 80 -18 43 -40 96 -49
117 l-17 40 -104 -104 -105 -105 -104 104 c-102 102 -105 104 -116 80 -5 -13
-27 -67 -48 -119 -21 -52 -42 -95 -47 -95 -26 0 -106 192 -137 329 -29 125
-31 354 -5 441 54 176 171 297 327 341 60 17 193 17 255 0z m-25 -1031 c96 96
99 98 108 74 6 -13 26 -64 46 -113 l36 -89 -28 -35 c-60 -76 -94 -130 -114
-184 l-21 -58 -128 0 -127 0 -17 49 c-17 53 -80 157 -109 180 -37 30 -37 45 0
137 20 49 40 100 46 113 9 24 12 22 108 -74 l100 -100 100 100z m30 -505 l0
-60 -130 0 -130 0 0 60 0 60 130 0 130 0 0 -60z m60 -125 l0 -45 -190 0 -190
0 0 45 0 45 190 0 190 0 0 -45z m-42 -112 c-3 -34 -6 -38 -28 -34 -14 2 -68 4
-120 4 -52 0 -106 -2 -120 -4 -22 -4 -25 0 -28 34 l-3 37 151 0 151 0 -3 -37z
m-40 -85 c-3 -22 -7 -23 -108 -23 -101 0 -105 1 -108 23 -3 22 -2 22 108 22
110 0 111 0 108 -22z"/>
<path d="M1126 3341 c14 -13 175 -64 181 -57 9 9 5 11 -82 40 -83 27 -116 33
-99 17z"/>
<path d="M2550 3323 c-82 -28 -86 -30 -77 -39 6 -7 167 44 182 57 17 16 -28 8
-105 -18z"/>
</g>
<g fill="#1A2018">
<path d="M7551 2839 c-83 -10 -179 -50 -225 -95 -95 -91 -97 -269 -5 -369 51
-55 105 -78 301 -126 181 -45 231 -66 253 -109 26 -50 20 -97 -18 -135 -41
-41 -89 -55 -189 -55 -128 0 -205 37 -243 117 -15 31 -20 34 -48 29 -18 -3
-62 -10 -99 -17 -78 -13 -80 -17 -44 -94 44 -93 143 -162 266 -185 82 -15 277
-12 345 5 177 47 264 155 253 314 -11 156 -101 232 -337 287 -232 53 -265 67
-288 121 -27 66 1 126 71 153 17 6 68 11 113 11 104 0 157 -24 188 -86 11 -22
20 -41 21 -42 0 -1 45 3 100 10 l99 13 -3 33 c-7 94 -98 179 -222 209 -68 16
-206 21 -289 11z"/>
<path d="M8699 2839 c-208 -30 -351 -159 -400 -359 -17 -71 -18 -249 0 -320
46 -189 180 -324 358 -361 89 -18 274 -7 348 21 208 79 315 251 315 506 0 164
-44 287 -137 380 -111 111 -293 161 -484 133z m238 -190 c65 -31 120 -100 144
-182 30 -98 24 -257 -13 -337 -34 -75 -69 -114 -130 -144 -72 -36 -189 -37
-263 -2 -120 55 -184 191 -172 367 6 103 18 144 60 205 60 90 148 128 272 118
33 -3 79 -14 102 -25z"/>
<path d="M2770 2315 l0 -515 95 0 96 0 -3 414 c-2 228 -2 413 -1 412 1 -1 27
-85 57 -187 31 -101 89 -285 129 -409 l73 -225 79 0 78 0 94 290 c52 160 109
344 128 410 l34 120 0 -412 1 -413 95 0 95 0 0 515 0 515 -144 0 -145 0 -45
-142 c-84 -267 -165 -533 -176 -577 -6 -23 -13 -41 -15 -40 -2 2 -13 40 -24
84 -11 44 -63 213 -115 375 l-94 295 -146 3 -146 3 0 -516z"/>
<path d="M4080 2316 l0 -516 110 0 110 0 0 179 0 179 178 4 c155 4 184 8 237
28 76 29 155 103 186 173 33 74 33 209 0 284 -29 67 -91 124 -167 154 -57 23
-71 24 -356 27 l-298 3 0 -515z m547 328 c80 -40 107 -139 62 -230 -33 -70
-75 -84 -247 -84 l-142 0 0 171 0 172 145 -5 c112 -5 152 -10 182 -24z"/>
<path d="M5132 2453 c3 -365 4 -380 26 -434 45 -112 149 -194 279 -219 38 -8
107 -11 175 -8 93 4 125 10 180 32 78 32 147 89 184 152 50 85 54 121 54 502
l0 352 -105 0 -105 0 0 -302 c0 -346 -7 -411 -47 -476 -41 -66 -98 -93 -196
-93 -115 0 -192 49 -217 139 -6 22 -10 176 -10 385 l0 347 -111 0 -110 0 3
-377z"/>
<path d="M6280 2315 l0 -515 385 0 385 0 0 85 0 85 -275 0 -275 0 0 430 0 430
-110 0 -110 0 0 -515z"/>
</g>
<g fill="#3D8C6A">
<path d="M10325 2822 c-132 -39 -218 -108 -273 -219 -44 -88 -57 -154 -57
-288 1 -180 41 -292 139 -391 63 -62 112 -89 213 -115 243 -62 483 25 581 210
l32 58 -81 32 c-44 17 -84 31 -88 31 -4 0 -24 -26 -45 -58 -61 -95 -164 -142
-280 -128 -118 15 -206 86 -243 196 -28 85 -25 275 6 354 58 146 210 211 377
161 58 -17 126 -71 144 -115 7 -16 18 -30 24 -30 6 0 48 9 92 21 l81 21 -14
37 c-37 94 -119 169 -232 212 -80 31 -289 37 -376 11z"/>
<path d="M17213 2816 c-166 -55 -266 -161 -309 -327 -22 -83 -22 -252 -1 -336
45 -174 164 -297 332 -344 72 -20 265 -18 335 4 109 34 208 107 263 194 87
138 107 375 46 538 -29 78 -97 165 -163 209 -92 61 -153 78 -301 82 -117 4
-137 2 -202 -20z m331 -166 c118 -60 175 -210 154 -406 -11 -99 -39 -163 -98
-218 -141 -132 -380 -87 -464 87 -78 160 -45 406 66 501 59 51 108 66 208 63
68 -2 95 -7 134 -27z"/>
<path d="M11170 2315 l0 -515 105 0 105 0 0 200 0 200 129 0 130 0 122 -200
122 -200 114 0 c89 0 113 3 107 13 -4 6 -63 98 -131 204 -68 105 -126 198
-129 206 -3 9 9 19 39 31 105 40 169 132 175 253 7 132 -41 219 -151 272 -86
43 -161 51 -469 51 l-268 0 0 -515z m576 344 c52 -13 103 -65 105 -107 6 -95
-14 -143 -71 -172 -35 -18 -59 -20 -220 -20 l-180 0 0 155 0 155 161 0 c88 0
180 -5 205 -11z"/>
<path d="M12320 2748 c-1 -105 -1 -768 0 -870 l0 -78 415 0 415 0 0 80 0 80
-315 0 -315 0 0 140 0 140 275 0 275 0 0 80 0 80 -275 0 -275 0 0 135 0 135
300 0 300 0 0 80 0 80 -400 0 -400 0 0 -82z"/>
<path d="M13679 2803 c-6 -16 -91 -247 -189 -515 l-178 -488 103 0 103 0 47
135 48 135 200 -2 200 -3 46 -132 46 -133 102 0 103 0 -19 48 c-10 26 -94 257
-187 514 l-169 468 -123 0 -122 0 -11 -27z m209 -351 c40 -120 72 -222 72
-225 0 -4 -68 -7 -151 -7 -119 0 -150 3 -147 13 11 47 144 436 149 437 3 0 38
-98 77 -218z"/>
<path d="M14320 2750 l0 -80 170 0 170 0 0 -435 0 -435 100 0 100 0 0 435 0
435 170 0 170 0 0 80 0 80 -440 0 -440 0 0 -80z"/>
<path d="M15390 2315 l0 -515 100 0 100 0 0 515 0 515 -100 0 -100 0 0 -515z"/>
<path d="M15781 2803 c12 -31 345 -931 361 -976 l10 -28 105 3 106 3 161 440
c89 242 174 473 189 513 l27 72 -108 0 -107 0 -117 -373 c-65 -204 -125 -399
-134 -432 l-18 -60 -13 50 c-8 28 -68 222 -135 433 l-121 382 -108 0 -109 0
11 -27z"/>
</g>
<line x1="1000" y1="1550" x2="18200" y2="1550" stroke="#3D8C6A" stroke-width="40" opacity="0.6"/>
</g>

<g font-family="'Georgia', 'Times New Roman', serif"
   font-size="44"
   font-weight="400"
   fill="#3D8C6A"
   text-anchor="middle"
   dominant-baseline="middle">
  <text x="532"  y="389">S</text>
  <text x="680"  y="389">T</text>
  <text x="827"  y="389">U</text>
  <text x="982"  y="389">D</text>
  <text x="1139" y="389">I</text>
  <text x="1281" y="389">O</text>
</g>

</svg>